<svg width="30" height="30" viewBox="0 0 30 30" fill="none" xmlns="http://www.w3.org/2000/svg">
<path d="M15.1533 16.3047L15 16.4238L14.8467 16.3057L12.6934 14.6357L5.03906 22.3545H24.9609L17.3047 14.6348L15.1533 16.3047ZM18.6104 13.6211L26.1133 21.1865V7.7959L18.6104 13.6211ZM3.88672 21.1855L11.3887 13.6221L3.88672 7.7959V21.1855ZM15 14.3477L24.7021 6.8125H5.29785L15 14.3477ZM27.75 22.0312C27.75 22.5526 27.5449 23.0535 27.1787 23.4229C26.8124 23.7922 26.3148 23.9999 25.7959 24H4.2041C3.68521 23.9999 3.18757 23.7922 2.82129 23.4229C2.45515 23.0535 2.25 22.5526 2.25 22.0312V7.13477L2.25977 6.94141C2.30498 6.49167 2.50304 6.06902 2.82324 5.74609C3.18921 5.37708 3.68565 5.16838 4.2041 5.16699H25.7959L25.9893 5.17676C26.4366 5.22259 26.8565 5.42319 27.1768 5.74609C27.5425 6.11495 27.7485 6.61405 27.75 7.13477V22.0312Z" fill="#544C4C" stroke="#544C4C" stroke-width="0.5"/>
</svg>
