<svg width="29" height="12" viewBox="0 0 29 12" fill="none" xmlns="http://www.w3.org/2000/svg">
<path d="M4.86741 0.248047C5.61937 0.248047 6.30296 0.414063 6.9182 0.746094C7.53831 1.07812 8.0388 1.625 8.41966 2.38672C8.8054 3.14844 8.99827 4.14453 8.99827 5.375C9.00316 6.57617 8.83226 7.61133 8.48558 8.48047C8.14378 9.34473 7.65062 10.0063 7.00609 10.4653C6.36644 10.9194 5.61448 11.1465 4.75023 11.1465C4.08616 11.1465 3.48802 11.0171 2.95579 10.7583C2.42357 10.4946 1.99388 10.1357 1.66673 9.68164C1.33958 9.22266 1.13695 8.70264 1.05882 8.12158H2.93382C3.00218 8.3999 3.11693 8.6416 3.27806 8.84668C3.44407 9.05176 3.65159 9.21045 3.90062 9.32275C4.14964 9.43506 4.43284 9.49121 4.75023 9.49121C5.25804 9.49121 5.69017 9.34717 6.04661 9.05908C6.40794 8.771 6.68138 8.35596 6.86693 7.81396C7.05736 7.26709 7.15257 6.61768 7.15257 5.86572H7.04271C6.86204 6.16357 6.63499 6.42236 6.36156 6.64209C6.08812 6.86182 5.77562 7.03027 5.42406 7.14746C5.07738 7.26465 4.71116 7.32324 4.32542 7.32324C3.70042 7.32324 3.13157 7.17676 2.61888 6.88379C2.10618 6.58594 1.70091 6.17578 1.40306 5.65332C1.10521 5.12598 0.956282 4.5376 0.956282 3.88818C0.956282 3.19482 1.11741 2.57227 1.43968 2.02051C1.76683 1.46387 2.22581 1.0293 2.81663 0.716797C3.41234 0.399414 4.09593 0.243164 4.86741 0.248047ZM4.86741 1.78613C4.48656 1.78613 4.13743 1.87891 3.82005 2.06445C3.50755 2.24512 3.26097 2.4917 3.08031 2.8042C2.89964 3.1167 2.80931 3.46094 2.80931 3.83691C2.81419 4.21289 2.90452 4.55713 3.08031 4.86963C3.25609 5.17725 3.49779 5.42139 3.8054 5.60205C4.11302 5.78271 4.4597 5.87305 4.84544 5.87305C5.23118 5.87305 5.58275 5.77783 5.90013 5.5874C6.21751 5.39697 6.46898 5.14551 6.65452 4.83301C6.84495 4.51562 6.93773 4.17871 6.93284 3.82227C6.93284 3.45605 6.84251 3.11914 6.66185 2.81152C6.48118 2.49902 6.2346 2.25 5.9221 2.06445C5.61448 1.87891 5.26292 1.78613 4.86741 1.78613ZM11.5945 9.67432C11.3894 9.67432 11.199 9.62305 11.0232 9.52051C10.8474 9.41309 10.7083 9.27393 10.6057 9.10303C10.5081 8.92725 10.4593 8.73682 10.4593 8.53174C10.4593 8.33154 10.5081 8.146 10.6057 7.9751C10.7083 7.79932 10.8474 7.6626 11.0232 7.56494C11.199 7.4624 11.3894 7.41113 11.5945 7.41113C11.7898 7.41113 11.9754 7.4624 12.1511 7.56494C12.3269 7.6626 12.4661 7.79932 12.5686 7.9751C12.6712 8.146 12.7224 8.33154 12.7224 8.53174C12.7224 8.73682 12.6712 8.92725 12.5686 9.10303C12.4661 9.27393 12.3269 9.41309 12.1511 9.52051C11.9754 9.62305 11.7898 9.67432 11.5945 9.67432ZM11.5945 3.99072C11.3894 3.99072 11.199 3.93945 11.0232 3.83691C10.8474 3.72949 10.7083 3.59033 10.6057 3.41943C10.5081 3.24365 10.4593 3.05322 10.4593 2.84814C10.4593 2.64795 10.5081 2.4624 10.6057 2.2915C10.7083 2.11572 10.8474 1.979 11.0232 1.88135C11.199 1.77881 11.3894 1.72754 11.5945 1.72754C11.7898 1.72754 11.9754 1.77881 12.1511 1.88135C12.3269 1.979 12.4661 2.11572 12.5686 2.2915C12.6712 2.4624 12.7224 2.64795 12.7224 2.84814C12.7224 3.05322 12.6712 3.24365 12.5686 3.41943C12.4661 3.59033 12.3269 3.72949 12.1511 3.83691C11.9754 3.93945 11.7898 3.99072 11.5945 3.99072ZM14.1468 7.50635L18.7318 0.394531H19.9915V2.5625H19.2078L16.1024 7.37451V7.4624H22.5037V9.02246H14.1468V7.50635ZM19.2957 8.56836L19.3177 7.87988V0.394531H21.1194V11H19.2957V8.56836ZM28.037 11H26.118V2.25488H26.0594L23.5765 3.84424V2.09375L26.2059 0.394531H28.037V11Z" fill="#212121"/>
</svg>
