<svg width="52" height="51" viewBox="0 0 52 51" fill="none" xmlns="http://www.w3.org/2000/svg">
<path fill-rule="evenodd" clip-rule="evenodd" d="M15.7579 7.758C16.8831 6.63317 18.409 6.00128 19.9999 6.00128C21.5909 6.00128 23.1168 6.63317 24.2419 7.758L25.9999 9.5145L27.7579 7.758C28.3114 7.18494 28.9735 6.72784 29.7055 6.41339C30.4375 6.09894 31.2249 5.93342 32.0215 5.9265C32.8182 5.91957 33.6083 6.07138 34.3457 6.37307C35.083 6.67475 35.753 7.12027 36.3163 7.68363C36.8797 8.24698 37.3252 8.9169 37.6269 9.65427C37.9286 10.3917 38.0804 11.1817 38.0734 11.9784C38.0665 12.7751 37.901 13.5624 37.5865 14.2944C37.2721 15.0264 36.815 15.6885 36.2419 16.242L25.9999 26.4855L15.7579 16.242C14.6331 15.1168 14.0012 13.591 14.0012 12C14.0012 10.409 14.6331 8.88316 15.7579 7.758V7.758Z" fill="black" stroke="black" stroke-width="2" stroke-linejoin="round"/>
<path d="M9.954 34.422H11.116V47.106H9.954V34.422ZM7.238 39.028H10.29V39.98H7.238V39.028ZM3.906 36.228H4.844V38.132C4.844 38.8133 4.75067 39.4853 4.564 40.148C4.38667 40.8013 4.13467 41.4173 3.808 41.996C3.49067 42.5747 3.11267 43.088 2.674 43.536C2.24467 43.984 1.78267 44.3387 1.288 44.6L0.588 43.676C1.04533 43.452 1.47467 43.144 1.876 42.752C2.27733 42.36 2.62733 41.9167 2.926 41.422C3.234 40.918 3.472 40.386 3.64 39.826C3.81733 39.2567 3.906 38.692 3.906 38.132V36.228ZM4.158 36.228H5.082V38.132C5.082 38.6547 5.166 39.1867 5.334 39.728C5.502 40.26 5.73533 40.764 6.034 41.24C6.342 41.716 6.69667 42.1453 7.098 42.528C7.49933 42.9013 7.92867 43.1953 8.386 43.41L7.7 44.334C7.196 44.082 6.72933 43.7413 6.3 43.312C5.87067 42.8827 5.49267 42.3927 5.166 41.842C4.84867 41.282 4.60133 40.6847 4.424 40.05C4.24667 39.4153 4.158 38.776 4.158 38.132V36.228ZM1.064 35.724H7.938V36.676H1.064V35.724ZM16.7009 35.78H17.6529V36.802C17.6529 37.586 17.5036 38.3093 17.2049 38.972C16.9156 39.6347 16.5049 40.2133 15.9729 40.708C15.4502 41.2027 14.8296 41.5807 14.1109 41.842L13.5229 40.918C14.1576 40.694 14.7129 40.3767 15.1889 39.966C15.6649 39.546 16.0336 39.0653 16.2949 38.524C16.5656 37.9827 16.7009 37.4087 16.7009 36.802V35.78ZM16.9109 35.78H17.8629V36.802C17.8629 37.3527 17.9889 37.8753 18.2409 38.37C18.4929 38.8647 18.8476 39.2987 19.3049 39.672C19.7622 40.0453 20.2989 40.3393 20.9149 40.554L20.3689 41.464C19.6596 41.2213 19.0482 40.8713 18.5349 40.414C18.0216 39.9567 17.6202 39.42 17.3309 38.804C17.0509 38.1787 16.9109 37.5113 16.9109 36.802V35.78ZM13.8729 35.36H20.6489V36.312H13.8729V35.36ZM22.2449 34.422H23.4069V42.052H22.2449V34.422ZM23.0849 37.642H25.2689V38.608H23.0849V37.642ZM19.3749 42.402C20.2336 42.402 20.9709 42.4953 21.5869 42.682C22.2122 42.8593 22.6929 43.1207 23.0289 43.466C23.3649 43.8113 23.5329 44.2313 23.5329 44.726C23.5329 45.2207 23.3649 45.6407 23.0289 45.986C22.6929 46.3313 22.2122 46.5973 21.5869 46.784C20.9709 46.9707 20.2336 47.064 19.3749 47.064C18.5162 47.064 17.7742 46.9707 17.1489 46.784C16.5236 46.5973 16.0429 46.3313 15.7069 45.986C15.3709 45.6407 15.2029 45.2207 15.2029 44.726C15.2029 44.2313 15.3709 43.8113 15.7069 43.466C16.0429 43.1207 16.5236 42.8593 17.1489 42.682C17.7742 42.4953 18.5162 42.402 19.3749 42.402ZM19.3749 43.326C18.7496 43.326 18.2082 43.382 17.7509 43.494C17.3029 43.606 16.9576 43.7647 16.7149 43.97C16.4722 44.1753 16.3509 44.4273 16.3509 44.726C16.3509 45.0247 16.4722 45.2813 16.7149 45.496C16.9576 45.7013 17.3029 45.86 17.7509 45.972C18.2082 46.084 18.7496 46.14 19.3749 46.14C20.0002 46.14 20.5369 46.084 20.9849 45.972C21.4329 45.86 21.7782 45.7013 22.0209 45.496C22.2636 45.2813 22.3849 45.0247 22.3849 44.726C22.3849 44.4273 22.2636 44.1753 22.0209 43.97C21.7782 43.7647 21.4329 43.606 20.9849 43.494C20.5369 43.382 20.0002 43.326 19.3749 43.326ZM35.0398 34.422H36.1878V47.092H35.0398V34.422ZM35.9218 39.63H38.2598V40.61H35.9218V39.63ZM26.3878 36.452H33.8498V37.404H26.3878V36.452ZM30.1818 38.44C30.7791 38.44 31.3065 38.566 31.7638 38.818C32.2305 39.07 32.5945 39.4153 32.8558 39.854C33.1265 40.2833 33.2618 40.7827 33.2618 41.352C33.2618 41.9213 33.1265 42.4253 32.8558 42.864C32.5945 43.3027 32.2305 43.648 31.7638 43.9C31.3065 44.1427 30.7791 44.264 30.1818 44.264C29.5845 44.264 29.0525 44.1427 28.5858 43.9C28.1285 43.648 27.7645 43.3027 27.4938 42.864C27.2231 42.4253 27.0878 41.9213 27.0878 41.352C27.0878 40.7827 27.2231 40.2833 27.4938 39.854C27.7645 39.4153 28.1285 39.07 28.5858 38.818C29.0525 38.566 29.5845 38.44 30.1818 38.44ZM30.1818 39.406C29.7991 39.406 29.4585 39.49 29.1598 39.658C28.8611 39.826 28.6231 40.0547 28.4458 40.344C28.2778 40.6333 28.1938 40.9693 28.1938 41.352C28.1938 41.7347 28.2778 42.0753 28.4458 42.374C28.6231 42.6633 28.8611 42.892 29.1598 43.06C29.4585 43.2187 29.7991 43.298 30.1818 43.298C30.5551 43.298 30.8911 43.2187 31.1898 43.06C31.4885 42.892 31.7218 42.6633 31.8898 42.374C32.0671 42.0753 32.1558 41.7347 32.1558 41.352C32.1558 40.9693 32.0671 40.6333 31.8898 40.344C31.7218 40.0547 31.4885 39.826 31.1898 39.658C30.8911 39.49 30.5551 39.406 30.1818 39.406ZM29.5798 34.576H30.7418V36.872H29.5798V34.576ZM48.5627 34.422H49.7247V47.092H48.5627V34.422ZM44.8527 35.794H46.0007C46.0007 36.7087 45.8887 37.5907 45.6647 38.44C45.4501 39.2893 45.1094 40.0967 44.6427 40.862C44.1761 41.618 43.5694 42.3227 42.8227 42.976C42.0761 43.6293 41.1707 44.2127 40.1067 44.726L39.4907 43.788C40.7134 43.2 41.7214 42.514 42.5147 41.73C43.3081 40.946 43.8961 40.0733 44.2787 39.112C44.6614 38.1413 44.8527 37.096 44.8527 35.976V35.794ZM40.0787 35.794H45.3427V36.732H40.0787V35.794Z" fill="black"/>
</svg>
