<svg width="18" height="12" viewBox="0 0 18 12" fill="none" xmlns="http://www.w3.org/2000/svg">
<path d="M2.00012 7.30029C2.27881 7.30029 2.41841 7.2997 2.5343 7.32275C3.01027 7.41749 3.38201 7.79013 3.47669 8.26611C3.49973 8.38202 3.50012 8.52156 3.50012 8.80029V9.80029C3.50012 10.079 3.49974 10.2186 3.47669 10.3345C3.38192 10.8103 3.01011 11.1821 2.5343 11.2769C2.41841 11.2999 2.27881 11.3003 2.00012 11.3003C1.72136 11.3003 1.58185 11.2999 1.46594 11.2769C0.989971 11.1822 0.617326 10.8104 0.522584 10.3345C0.499532 10.2186 0.500123 10.079 0.500123 9.80029V8.80029C0.500123 8.52166 0.499566 8.38199 0.522584 8.26611C0.617272 7.79008 0.989915 7.41744 1.46594 7.32275C1.58183 7.29973 1.72146 7.30029 2.00012 7.30029ZM6.79993 5.30029C7.07869 5.30029 7.2182 5.2997 7.33411 5.32275C7.81014 5.41744 8.1818 5.79008 8.27649 6.26611C8.29954 6.38202 8.29993 6.52153 8.29993 6.80029V9.80029C8.29993 10.079 8.29954 10.2186 8.27649 10.3345C8.1817 10.8103 7.80999 11.1822 7.33411 11.2769C7.21819 11.2999 7.07872 11.3003 6.79993 11.3003C6.52116 11.3003 6.38166 11.2999 6.26575 11.2769C5.78989 11.1821 5.41815 10.8103 5.32337 10.3345C5.30031 10.2186 5.29993 10.079 5.29993 9.80029V6.80029C5.29993 6.52154 5.30032 6.38202 5.32337 6.26611C5.41805 5.79009 5.78973 5.41745 6.26575 5.32275C6.38166 5.2997 6.52116 5.30029 6.79993 5.30029ZM11.3995 3.00049C11.678 3.00049 11.8179 2.99997 11.9337 3.02295C12.4097 3.11764 12.7824 3.49028 12.8771 3.96631C12.9001 4.08216 12.8995 4.22197 12.8995 4.50049V9.80029C12.8995 10.079 12.9001 10.2186 12.8771 10.3345C12.7823 10.8104 12.4097 11.1822 11.9337 11.2769C11.8179 11.2999 11.6781 11.3003 11.3995 11.3003C11.1214 11.3003 10.9821 11.2998 10.8663 11.2769C10.3904 11.1822 10.0177 10.8104 9.92298 10.3345C9.89992 10.2186 9.89954 10.079 9.89954 9.80029V4.50049C9.89954 4.22195 9.89998 4.08216 9.92298 3.96631C10.0177 3.49028 10.3903 3.11764 10.8663 3.02295C10.9821 3 11.1214 3.00049 11.3995 3.00049ZM16.0997 0.600098C16.3785 0.600098 16.518 0.60049 16.6339 0.623535C17.1099 0.718223 17.4826 1.08989 17.5773 1.56592C17.6003 1.68184 17.5997 1.82131 17.5997 2.1001V9.80029C17.5997 10.079 17.6003 10.2186 17.5773 10.3345C17.4825 10.8104 17.1099 11.1822 16.6339 11.2769C16.518 11.2999 16.3784 11.3003 16.0997 11.3003C15.8211 11.3003 15.6814 11.2999 15.5656 11.2769C15.0898 11.1821 14.7179 10.8103 14.6232 10.3345C14.6001 10.2186 14.5997 10.079 14.5997 9.80029V2.1001C14.5997 1.82131 14.6001 1.68184 14.6232 1.56592C14.7179 1.09005 15.0897 0.718328 15.5656 0.623535C15.6814 0.600483 15.8211 0.600098 16.0997 0.600098Z" fill="#212121"/>
</svg>
