<svg width="16" height="12" viewBox="0 0 16 12" fill="none" xmlns="http://www.w3.org/2000/svg">
<path fill-rule="evenodd" clip-rule="evenodd" d="M8.3004 2.69675C10.5348 2.69685 12.6838 3.5554 14.3031 5.09496C14.4251 5.21382 14.62 5.21232 14.7401 5.0916L15.9058 3.91518C15.9666 3.85395 16.0005 3.77101 16 3.68472C15.9995 3.59842 15.9646 3.51589 15.9031 3.45537C11.6527 -0.617936 4.94737 -0.617936 0.697047 3.45537C0.635477 3.51584 0.600547 3.59835 0.599983 3.68465C0.599408 3.77094 0.633259 3.85391 0.694022 3.91518L1.86003 5.0916C1.98004 5.2125 2.17511 5.214 2.29698 5.09496C3.91655 3.5553 6.06577 2.69675 8.3004 2.69675ZM8.3004 6.52414C9.52806 6.52406 10.7119 6.98038 11.6219 7.80441C11.745 7.92136 11.9389 7.91883 12.0589 7.7987L13.2232 6.62228C13.2845 6.56058 13.3185 6.47687 13.3177 6.38988C13.3168 6.3029 13.281 6.21989 13.2185 6.15945C10.4473 3.5817 6.15582 3.5817 3.38466 6.15945C3.32206 6.21989 3.28635 6.30294 3.28553 6.38995C3.2847 6.47696 3.31885 6.56067 3.38028 6.62228L4.54427 7.7987C4.66425 7.91883 4.85814 7.92136 4.98122 7.80441C5.89063 6.98092 7.07354 6.52465 8.3004 6.52414ZM10.5379 9.33174C10.6002 9.27063 10.6345 9.18653 10.6327 9.0993C10.6309 9.01207 10.5932 8.92944 10.5285 8.87092C9.2423 7.78302 7.35849 7.78302 6.07226 8.87092C6.00751 8.92939 5.96974 9.01199 5.9679 9.09922C5.96605 9.18645 6.00029 9.27058 6.06251 9.33174L8.07688 11.3642C8.13592 11.424 8.2164 11.4576 8.3004 11.4576C8.38439 11.4576 8.46487 11.424 8.52391 11.3642L10.5379 9.33174Z" fill="#212121"/>
</svg>
