<svg width="68" height="12" viewBox="0 0 68 12" fill="none" xmlns="http://www.w3.org/2000/svg">
<path d="M61.4096 0.160156C62.6572 0.160156 63.1107 0.29036 63.5668 0.53418C64.023 0.778126 64.3814 1.1367 64.6254 1.59277C64.8694 2.04897 64.9994 2.5023 64.9995 3.75V8.07031C64.9995 9.31818 64.8694 9.77134 64.6254 10.2275C64.3814 10.6838 64.0231 11.0421 63.5668 11.2861C63.1106 11.5301 62.6575 11.6602 61.4096 11.6602H46.5893C45.3416 11.6601 44.8883 11.5301 44.4321 11.2861C43.976 11.0421 43.6174 10.6837 43.3735 10.2275C43.1297 9.77145 42.9995 9.31788 42.9995 8.07031V3.75C42.9995 2.5023 43.1295 2.04897 43.3735 1.59277C43.6175 1.13659 43.9759 0.778183 44.4321 0.53418C44.8883 0.290224 45.3416 0.160184 46.5893 0.160156H61.4096ZM46.5893 1.16016C45.6028 1.16017 45.2575 1.22686 44.9037 1.41602C44.6218 1.56682 44.4061 1.78254 44.2553 2.06445C44.0662 2.41823 43.9995 2.7635 43.9995 3.75V8.07031C43.9995 9.05667 44.0663 9.4022 44.2553 9.75586C44.4061 10.0377 44.622 10.2535 44.9037 10.4043C45.2575 10.5935 45.6028 10.6601 46.5893 10.6602H61.4096C62.3963 10.6602 62.7414 10.5934 63.0952 10.4043C63.3772 10.2535 63.5928 10.0379 63.7436 9.75586C63.9327 9.40209 63.9995 9.05698 63.9995 8.07031V3.75C63.9994 2.7635 63.9327 2.41823 63.7436 2.06445C63.5928 1.78266 63.377 1.56676 63.0952 1.41602C62.7415 1.22703 62.396 1.16016 61.4096 1.16016H46.5893ZM65.9995 3.85059C65.9995 3.85059 67.4995 4.61401 67.4995 5.85059C67.4994 7.08714 65.9995 7.85059 65.9995 7.85059V3.85059Z" fill="#212121"/>
<rect x="44.9999" y="2.07715" width="18" height="7.66667" rx="1.6" fill="#212121"/>
<path d="M2 7.30078C2.27869 7.30078 2.41828 7.30019 2.53418 7.32324C3.01014 7.41797 3.38189 7.79062 3.47656 8.2666C3.49961 8.38251 3.5 8.52205 3.5 8.80078V9.80078C3.5 10.0794 3.49962 10.2191 3.47656 10.335C3.3818 10.8108 3.00999 11.1826 2.53418 11.2773C2.41828 11.3004 2.27869 11.3008 2 11.3008C1.72124 11.3008 1.58173 11.3004 1.46582 11.2773C0.989849 11.1827 0.617204 10.8109 0.522462 10.335C0.49941 10.2191 0.500001 10.0794 0.500001 9.80078V8.80078C0.500001 8.52215 0.499444 8.38248 0.522462 8.2666C0.61715 7.79057 0.989793 7.41793 1.46582 7.32324C1.58171 7.30022 1.72133 7.30078 2 7.30078ZM6.79981 5.30078C7.07857 5.30078 7.21807 5.30019 7.33399 5.32324C7.81001 5.41793 8.18168 5.79057 8.27637 6.2666C8.29942 6.38251 8.29981 6.52202 8.29981 6.80078V9.80078C8.29981 10.0794 8.29942 10.2191 8.27637 10.335C8.18158 10.8108 7.80987 11.1827 7.33399 11.2773C7.21807 11.3004 7.0786 11.3008 6.79981 11.3008C6.52103 11.3008 6.38154 11.3004 6.26563 11.2773C5.78977 11.1826 5.41803 10.8108 5.32324 10.335C5.30019 10.2191 5.29981 10.0794 5.29981 9.80078V6.80078C5.29981 6.52203 5.3002 6.38251 5.32324 6.2666C5.41793 5.79058 5.78961 5.41794 6.26563 5.32324C6.38154 5.30019 6.52103 5.30078 6.79981 5.30078ZM11.3994 3.00098C11.6779 3.00098 11.8178 3.00046 11.9336 3.02344C12.4096 3.11813 12.7823 3.49077 12.877 3.9668C12.8999 4.08265 12.8994 4.22245 12.8994 4.50098V9.80078C12.8994 10.0794 12.9 10.2191 12.877 10.335C12.7822 10.8109 12.4096 11.1827 11.9336 11.2773C11.8177 11.3003 11.678 11.3008 11.3994 11.3008C11.1212 11.3008 10.982 11.3003 10.8662 11.2773C10.3903 11.1827 10.0176 10.8109 9.92285 10.335C9.8998 10.2191 9.89942 10.0794 9.89942 9.80078V4.50098C9.89942 4.22244 9.89986 4.08265 9.92285 3.9668C10.0175 3.49077 10.3902 3.11813 10.8662 3.02344C10.982 3.00049 11.1213 3.00098 11.3994 3.00098ZM16.0996 0.600586C16.3784 0.600586 16.5179 0.600979 16.6338 0.624023C17.1098 0.718711 17.4825 1.09038 17.5772 1.56641C17.6002 1.68232 17.5996 1.8218 17.5996 2.10059V9.80078C17.5996 10.0794 17.6002 10.2191 17.5772 10.335C17.4824 10.8109 17.1098 11.1827 16.6338 11.2773C16.5179 11.3004 16.3783 11.3008 16.0996 11.3008C15.821 11.3008 15.6813 11.3004 15.5654 11.2773C15.0896 11.1826 14.7178 10.8107 14.623 10.335C14.6 10.2191 14.5996 10.0794 14.5996 9.80078V2.10059C14.5996 1.82179 14.6 1.68232 14.623 1.56641C14.7177 1.09054 15.0896 0.718817 15.5654 0.624023C15.6813 0.600972 15.821 0.600586 16.0996 0.600586Z" fill="#212121"/>
<path fill-rule="evenodd" clip-rule="evenodd" d="M30.3003 2.69675C32.5347 2.69685 34.6837 3.5554 36.303 5.09496C36.425 5.21382 36.6199 5.21232 36.74 5.0916L37.9056 3.91518C37.9665 3.85395 38.0004 3.77101 37.9998 3.68472C37.9993 3.59842 37.9645 3.51589 37.9029 3.45537C33.6526 -0.617936 26.9472 -0.617936 22.6969 3.45537C22.6354 3.51584 22.6004 3.59835 22.5999 3.68465C22.5993 3.77094 22.6331 3.85391 22.6939 3.91518L23.8599 5.0916C23.9799 5.2125 24.175 5.214 24.2969 5.09496C25.9164 3.5553 28.0656 2.69675 30.3003 2.69675ZM30.3003 6.52414C31.5279 6.52406 32.7118 6.98038 33.6218 7.80441C33.7449 7.92136 33.9388 7.91883 34.0588 7.7987L35.2231 6.62228C35.2844 6.56058 35.3184 6.47687 35.3175 6.38988C35.3166 6.3029 35.2809 6.21989 35.2184 6.15945C32.4472 3.5817 28.1557 3.5817 25.3845 6.15945C25.3219 6.21989 25.2862 6.30294 25.2854 6.38995C25.2846 6.47696 25.3187 6.56067 25.3802 6.62228L26.5441 7.7987C26.6641 7.91883 26.858 7.92136 26.9811 7.80441C27.8905 6.98092 29.0734 6.52465 30.3003 6.52414ZM32.5378 9.33174C32.6001 9.27063 32.6344 9.18653 32.6326 9.0993C32.6308 9.01207 32.5931 8.92944 32.5284 8.87092C31.2422 7.78302 29.3584 7.78302 28.0721 8.87092C28.0074 8.92939 27.9696 9.01199 27.9678 9.09922C27.9659 9.18645 28.0002 9.27058 28.0624 9.33174L30.0768 11.3642C30.1358 11.424 30.2163 11.4576 30.3003 11.4576C30.3843 11.4576 30.4648 11.424 30.5238 11.3642L32.5378 9.33174Z" fill="#212121"/>
</svg>
